<svg width="162" height="69" viewBox="0 0 162 69" fill="none" xmlns="http://www.w3.org/2000/svg">
<path d="M159.635 3.83154H1.21503V65.9315H159.635V3.83154Z" stroke="black" stroke-width="0.028"/>
<path d="M21.627 15.5778V54.1853H30.6666V40.02H30.7476L31.6143 39.1676L44.712 54.0473H55.6592L37.4909 33.4041L55.6592 15.5778H44.4123L30.6585 29.0612V15.5778H21.627Z" fill="#FF2A2A"/>
<path d="M15.5601 27.048V50.5364H9.42839V31.7684C10.6758 27.2631 13.2313 27.5635 15.5601 27.048ZM15.5601 15.6143V22.7903H9.42839C9.35954 14.7538 7.89344 15.6143 15.5601 15.6143ZM65.0592 39.5045C62.7709 39.5045 61.1712 39.8008 60.264 40.3853C59.3568 40.9738 58.9032 41.9804 58.9032 43.4091C58.9032 44.4685 59.2191 45.3168 59.8468 45.9459C60.4746 46.575 61.3251 46.8875 62.3983 46.8875C64.0183 46.8875 65.2738 46.2787 66.1648 45.0611C67.0599 43.8353 67.5054 42.1225 67.5054 39.9266V39.5045H65.0592ZM73.5966 37.1342V50.5405H67.5054V47.9185C66.7761 48.9448 65.7975 49.7677 64.6623 50.3091C63.4652 50.8761 62.1549 51.1621 60.831 51.1452C58.1661 51.1452 56.0884 50.439 54.594 49.0265C53.1157 47.6141 52.3746 45.6455 52.3746 43.1128C52.3746 40.3731 53.2615 38.3518 55.0314 37.053C56.8053 35.7379 59.5471 35.0804 63.2569 35.0804H67.5094V34.0535C67.5094 33.0591 67.1449 32.3082 66.4159 31.809C65.7072 31.2895 64.6542 31.0338 63.2569 31.0338C61.7949 31.0338 60.3693 31.2205 58.9882 31.602C57.493 32.0159 56.052 32.6058 54.6952 33.3595V28.1155C56.052 27.5594 57.4249 27.1414 58.8222 26.8775C60.2154 26.6137 61.6977 26.4798 63.2569 26.4798C67.0639 26.4798 69.7369 27.255 71.2759 28.8095C72.823 30.36 73.5966 33.1362 73.5966 37.1342ZM90.6552 20.3753V27.048H98.6702V31.7684H90.6511V42.8815C90.6511 43.9327 90.9063 44.6876 91.4085 45.1463C91.9228 45.5928 92.7733 45.8201 93.96 45.8201H98.6702V50.5364H93.5226C90.0072 50.5364 87.6258 49.9804 86.3865 48.8601C85.1431 47.7277 84.5235 45.6374 84.5235 42.5892V31.7684H78.5376V27.048H84.5235V22.5265C84.8232 20.3753 90.6552 20.3753 90.6552 20.3753ZM114.911 31.4721C113.445 31.4721 112.294 32.1215 111.456 33.4204C110.622 34.7111 110.2 36.5051 110.2 38.8145C110.2 41.1199 110.622 42.9261 111.456 44.2249C112.294 45.5116 113.445 46.1529 114.911 46.1529C116.389 46.1529 117.547 45.5116 118.386 44.2249C119.22 42.9261 119.641 41.1199 119.641 38.8145C119.641 36.5051 119.22 34.7111 118.386 33.4244C117.547 32.1256 116.389 31.4762 114.911 31.4762V31.4721ZM104.069 38.8145C104.069 35.0236 105.045 32.0241 107.001 29.8161C108.965 27.5919 111.602 26.4798 114.911 26.4798C118.232 26.4798 120.868 27.5919 122.82 29.8161C124.789 32.0241 125.773 35.0236 125.773 38.8145C125.773 42.6014 124.789 45.609 122.82 47.8332C120.868 50.0412 118.232 51.1452 114.911 51.1452C111.602 51.1452 108.965 50.0412 107.001 47.8332C105.045 45.609 104.069 42.6014 104.069 38.8145ZM140.717 31.4721C139.251 31.4721 138.101 32.1215 137.263 33.4204C136.424 34.7111 136.007 36.5051 136.007 38.8145C136.007 41.1199 136.424 42.9261 137.263 44.2249C138.101 45.5116 139.247 46.1529 140.717 46.1529C142.195 46.1529 143.35 45.5116 144.192 44.2249C145.026 42.9261 145.448 41.1199 145.448 38.8145C145.448 36.5051 145.026 34.7111 144.192 33.4244C143.354 32.1256 142.195 31.4762 140.717 31.4762V31.4721ZM129.875 38.8145C129.875 35.0236 130.851 32.0241 132.804 29.8161C134.772 27.5919 137.408 26.4798 140.717 26.4798C144.038 26.4798 146.671 27.5919 148.627 29.8161C150.595 32.0241 151.579 35.0236 151.579 38.8145C151.579 42.6014 150.595 45.609 148.627 47.8332C146.675 50.0412 144.038 51.1452 140.717 51.1452C137.408 51.1452 134.772 50.0412 132.804 47.8332C130.851 45.609 129.875 42.6014 129.875 38.8145Z" fill="#B3B3B3"/>
</svg>
